<?xml version="1.0" encoding="UTF-8" standalone="no"?>
<!-- Generator: Adobe Illustrator 24.0.0, SVG Export Plug-In . SVG Version: 6.00 Build 0)  -->

<svg
   version="1.1"
   id="Capa_1"
   x="0px"
   y="0px"
   viewBox="0 0 171.55 118.72"
   xml:space="preserve"
   sodipodi:docname="logo-mercado-liebre.svg"
   inkscape:version="1.1 (c68e22c387, 2021-05-23)"
   width="171.55"
   height="118.72"
   xmlns:inkscape="http://www.inkscape.org/namespaces/inkscape"
   xmlns:sodipodi="http://sodipodi.sourceforge.net/DTD/sodipodi-0.dtd"
   xmlns="http://www.w3.org/2000/svg"
   xmlns:svg="http://www.w3.org/2000/svg"><defs
   id="defs46" /><sodipodi:namedview
   id="namedview44"
   pagecolor="#ffffff"
   bordercolor="#666666"
   borderopacity="1.0"
   inkscape:pageshadow="2"
   inkscape:pageopacity="0.0"
   inkscape:pagecheckerboard="0"
   showgrid="false"
   inkscape:zoom="0.81458701"
   inkscape:cx="192.7357"
   inkscape:cy="1.8414239"
   inkscape:window-width="1366"
   inkscape:window-height="745"
   inkscape:window-x="-8"
   inkscape:window-y="-8"
   inkscape:window-maximized="1"
   inkscape:current-layer="Capa_1" />
<style
   type="text/css"
   id="style2">
	.st0{fill:#03264C;}
	.st1{fill:#EAC926;}
	.st2{fill:#FFFFFF;}
</style>
<g
   id="g14"
   transform="translate(-3.8572,-6.7789)">
	<g
   id="g20"
   transform="translate(329.6772,316.9189)">
		<path
   id="path22"
   class="st0"
   d="m -154.27,-254.04 c 0,-30.91 -38.4,-56.1 -85.77,-56.1 -47.37,0 -85.77,25.19 -85.77,56.1 0,0.8 -0.01,3 -0.01,3.28 0,32.79 33.56,59.34 85.77,59.34 52.53,0 85.78,-26.55 85.78,-59.34 z" />
	</g>
	<g
   id="g24"
   transform="translate(325.6143,316.9531)">
		<path
   id="path26"
   class="st1"
   d="m -153.49,-254.1 c 0,29.14 -36.92,52.76 -82.47,52.76 -45.55,0 -82.47,-23.62 -82.47,-52.76 0,-29.14 36.92,-52.76 82.47,-52.76 45.55,0 82.47,23.62 82.47,52.76" />
	</g>
	<g
   id="g28"
   transform="translate(189.7051,337.5469)">
		<path
   id="path30"
   class="st2"
   d="m -127.43,-291.34 c -0.04,0.08 -0.87,0.93 -0.33,1.62 1.3,1.66 5.32,2.62 9.39,1.7 2.42,-0.54 5.52,-3.01 8.53,-5.4 3.26,-2.59 6.49,-5.18 9.74,-6.21 3.44,-1.09 5.64,-0.63 7.1,-0.18 1.6,0.48 3.47,1.53 6.47,3.78 5.64,4.24 28.34,24.05 32.25,27.47 3.16,-1.43 17.19,-7.47 36.26,-11.67 -1.66,-10.17 -7.84,-19.47 -17.22,-27.08 -13.07,5.49 -29.04,8.35 -44.67,0.73 -0.08,-0.03 -8.53,-4.03 -16.87,-3.84 -12.39,0.29 -17.76,5.65 -23.44,11.33 z" />
	</g>
	<g
   id="g32"
   transform="translate(279.0542,306.6982)">
		<path
   id="path34"
   class="st2"
   d="m -144.56,-235.56 c -0.27,-0.24 -26.68,-23.35 -32.66,-27.85 -3.46,-2.6 -5.39,-3.26 -7.41,-3.52 -1.05,-0.14 -2.51,0.06 -3.52,0.34 -2.78,0.76 -6.42,3.19 -9.65,5.75 -3.35,2.66 -6.5,5.17 -9.43,5.83 -3.74,0.84 -8.31,-0.15 -10.39,-1.56 -0.85,-0.57 -1.44,-1.22 -1.73,-1.89 -0.77,-1.79 0.65,-3.21 0.88,-3.45 l 7.29,-7.88 c 0.85,-0.85 1.7,-1.69 2.57,-2.53 -2.35,0.31 -4.53,0.91 -6.64,1.5 -2.64,0.74 -5.18,1.45 -7.75,1.45 -1.07,0 -6.82,-0.94 -7.91,-1.24 -6.6,-1.81 -12.39,-3.56 -21.03,-7.6 -10.36,7.71 -17.29,17.36 -19.29,27.98 1.49,0.39 3.89,1.11 4.89,1.33 23.45,5.21 30.76,10.59 32.08,11.71 1.43,-1.59 3.5,-2.61 5.81,-2.61 2.6,0 4.93,1.31 6.35,3.32 1.34,-1.06 3.2,-1.97 5.59,-1.97 1.09,0 2.22,0.2 3.36,0.59 2.64,0.91 4.01,2.67 4.72,4.26 0.89,-0.4 1.98,-0.7 3.26,-0.69 1.26,0 2.58,0.29 3.9,0.86 4.32,1.86 5,6.1 4.6,9.3 0.31,-0.04 0.62,-0.05 0.93,-0.05 5.13,0 9.29,4.17 9.29,9.3 0,1.59 -0.41,3.08 -1.11,4.39 1.39,0.78 4.95,2.56 8.07,2.16 2.49,-0.32 3.44,-1.17 3.78,-1.65 0.23,-0.33 0.48,-0.71 0.25,-0.99 l -6.62,-7.35 c 0,0 -1.09,-1.03 -0.73,-1.43 0.37,-0.41 1.04,0.18 1.52,0.58 3.37,2.81 7.48,7.06 7.48,7.06 0.07,0.04 0.34,0.58 1.86,0.85 1.31,0.23 3.63,0.1 5.23,-1.22 0.4,-0.33 0.81,-0.75 1.15,-1.18 -0.03,0.02 -0.05,0.05 -0.07,0.06 1.69,-2.17 -0.19,-4.36 -0.19,-4.36 l -7.73,-8.67 c 0,0 -1.1,-1.02 -0.73,-1.43 0.34,-0.36 1.05,0.18 1.53,0.58 2.45,2.05 5.9,5.51 9.21,8.76 0.65,0.48 3.56,2.27 7.41,-0.26 2.34,-1.53 2.81,-3.42 2.74,-4.84 -0.16,-1.88 -1.63,-3.22 -1.63,-3.22 l -10.55,-10.61 c 0,0 -1.11,-0.95 -0.72,-1.43 0.32,-0.4 1.05,0.18 1.52,0.58 3.36,2.81 12.46,11.15 12.46,11.15 0.13,0.09 3.27,2.33 7.16,-0.14 1.39,-0.89 2.28,-2.23 2.35,-3.78 0.15,-2.68 -1.75,-4.29 -1.75,-4.29" />
	</g>
	<g
   id="g36"
   transform="translate(215.7334,290.0596)">
		<path
   id="path38"
   class="st2"
   d="m -132.42,-205.47 c -1.64,-0.02 -3.43,0.95 -3.66,0.81 -0.13,-0.09 0.1,-0.74 0.25,-1.12 0.16,-0.38 2.31,-6.86 -2.94,-9.11 -4.02,-1.73 -6.47,0.21 -7.32,1.09 -0.22,0.23 -0.32,0.21 -0.35,-0.08 -0.08,-1.17 -0.6,-4.33 -4.07,-5.38 -4.96,-1.52 -8.14,1.94 -8.95,3.19 -0.36,-2.82 -2.75,-5.02 -5.68,-5.02 -3.18,0 -5.76,2.57 -5.76,5.75 0,3.18 2.58,5.75 5.76,5.75 1.54,0 2.95,-0.61 3.98,-1.61 0.03,0.03 0.05,0.08 0.03,0.19 -0.24,1.42 -0.69,6.6 4.73,8.7 2.17,0.84 4.02,0.22 5.55,-0.86 0.46,-0.32 0.53,-0.19 0.47,0.24 -0.2,1.33 0.05,4.18 4.04,5.8 3.04,1.23 4.84,-0.03 6.01,-1.12 0.51,-0.47 0.65,-0.39 0.68,0.33 0.14,3.85 3.34,6.91 7.23,6.91 4,0 7.24,-3.23 7.25,-7.23 -0.01,-3.99 -3.25,-7.19 -7.25,-7.23" />
	</g>
	<g
   id="g40"
   transform="translate(215.7334,272.79)">
		<path
   id="path42"
   class="st0"
   d="m -132.42,-174.24 c -3.63,0 -6.57,-2.82 -6.71,-6.41 -0.01,-0.31 -0.04,-1.13 -0.73,-1.13 -0.29,0 -0.53,0.17 -0.82,0.43 -0.8,0.74 -1.81,1.49 -3.3,1.49 -0.67,0 -1.4,-0.16 -2.17,-0.47 -3.83,-1.55 -3.88,-4.18 -3.72,-5.24 0.04,-0.28 0.05,-0.57 -0.14,-0.81 l -0.23,-0.21 h -0.24 c -0.2,0 -0.39,0.08 -0.67,0.27 -1.11,0.78 -2.17,1.15 -3.25,1.15 -0.59,0 -1.2,-0.12 -1.82,-0.35 -5.04,-1.96 -4.64,-6.72 -4.4,-8.15 0.04,-0.29 -0.04,-0.51 -0.22,-0.66 l -0.36,-0.29 -0.33,0.32 c -0.98,0.95 -2.27,1.46 -3.62,1.46 -2.89,0 -5.24,-2.35 -5.23,-5.23 0,-2.89 2.35,-5.23 5.24,-5.23 2.61,0 4.83,1.96 5.16,4.57 l 0.18,1.41 0.77,-1.19 c 0.09,-0.14 2.2,-3.34 6.09,-3.33 0.74,0 1.5,0.12 2.27,0.36 3.1,0.95 3.63,3.76 3.71,4.93 0.05,0.68 0.54,0.71 0.64,0.71 0.27,0 0.47,-0.17 0.6,-0.32 0.59,-0.61 1.86,-1.62 3.85,-1.62 0.91,0 1.88,0.22 2.89,0.65 4.93,2.11 2.69,8.37 2.67,8.44 -0.42,1.04 -0.44,1.5 -0.04,1.76 l 0.19,0.09 h 0.14 c 0.22,0 0.5,-0.1 0.96,-0.25 0.67,-0.23 1.68,-0.58 2.63,-0.58 v 0 c 3.71,0.04 6.73,3.06 6.72,6.73 0.01,3.69 -3.01,6.7 -6.71,6.7 m 52.2,-30.17 c -8.14,-7.1 -26.94,-23.45 -32.03,-27.27 -2.91,-2.19 -4.89,-3.34 -6.64,-3.86 -0.78,-0.24 -1.87,-0.51 -3.26,-0.51 -1.3,0 -2.69,0.23 -4.14,0.7 -3.29,1.04 -6.57,3.65 -9.74,6.17 l -0.16,0.13 c -2.96,2.35 -6.01,4.78 -8.32,5.29 -1.01,0.23 -2.04,0.35 -3.08,0.35 -2.59,0 -4.91,-0.75 -5.78,-1.86 -0.14,-0.18 -0.05,-0.48 0.29,-0.91 l 0.04,-0.06 7.16,-7.71 c 5.61,-5.61 10.9,-10.9 23.09,-11.18 0.2,0 0.41,-0.01 0.61,-0.01 7.59,0 15.17,3.4 16.02,3.79 7.12,3.47 14.46,5.23 21.84,5.24 7.69,0 15.63,-1.9 23.98,-5.75 -0.93,-0.78 -1.9,-1.55 -2.9,-2.3 -7.33,3.18 -14.32,4.79 -21.05,4.78 -6.88,-0.01 -13.76,-1.66 -20.44,-4.92 -0.35,-0.17 -8.73,-4.12 -17.44,-4.12 -0.23,0 -0.46,0 -0.69,0.01 -10.24,0.24 -16.01,3.88 -19.88,7.06 -3.77,0.09 -7.03,1 -9.92,1.81 -2.58,0.72 -4.81,1.34 -6.99,1.34 -0.9,0 -2.51,-0.08 -2.66,-0.09 -2.5,-0.08 -15.11,-3.17 -25.14,-6.96 -1.02,0.72 -2.01,1.47 -2.97,2.23 10.48,4.3 23.23,7.62 27.25,7.88 1.12,0.07 2.31,0.2 3.51,0.2 2.66,0 5.32,-0.75 7.89,-1.47 1.52,-0.43 3.2,-0.89 4.96,-1.23 -0.47,0.46 -0.94,0.93 -1.41,1.4 l -7.27,7.87 c -0.57,0.58 -1.81,2.12 -1,4.02 0.33,0.77 0.99,1.5 1.91,2.12 1.73,1.17 4.84,1.96 7.72,1.96 1.09,0 2.13,-0.11 3.08,-0.32 3.05,-0.68 6.25,-3.23 9.63,-5.92 2.7,-2.15 6.53,-4.87 9.47,-5.67 0.82,-0.22 1.83,-0.36 2.64,-0.36 0.24,0 0.47,0.01 0.68,0.04 1.94,0.25 3.82,0.91 7.16,3.42 5.97,4.48 32.39,27.59 32.64,27.82 0.02,0.02 1.7,1.47 1.59,3.88 -0.06,1.35 -0.81,2.54 -2.11,3.37 -1.13,0.71 -2.29,1.08 -3.47,1.08 -1.77,0 -2.98,-0.83 -3.06,-0.89 -0.1,-0.08 -9.15,-8.38 -12.48,-11.17 -0.53,-0.44 -1.05,-0.83 -1.57,-0.83 -0.28,0 -0.52,0.12 -0.69,0.33 -0.52,0.65 0.06,1.54 0.75,2.13 l 10.57,10.63 c 0.01,0.01 1.32,1.24 1.46,2.86 0.08,1.76 -0.76,3.23 -2.51,4.38 -1.25,0.82 -2.51,1.24 -3.75,1.24 -1.62,0 -2.76,-0.74 -3.01,-0.91 l -1.52,-1.49 c -2.77,-2.73 -5.63,-5.55 -7.73,-7.3 -0.51,-0.42 -1.06,-0.82 -1.58,-0.82 -0.25,0 -0.49,0.1 -0.67,0.28 -0.24,0.27 -0.4,0.74 0.19,1.53 0.24,0.33 0.53,0.6 0.53,0.6 l 7.72,8.66 c 0.06,0.08 1.59,1.89 0.17,3.7 l -0.27,0.34 c -0.23,0.26 -0.48,0.49 -0.72,0.69 -1.32,1.08 -3.07,1.2 -3.77,1.2 -0.37,0 -0.73,-0.03 -1.05,-0.09 -0.76,-0.14 -1.27,-0.35 -1.52,-0.64 l -0.09,-0.09 c -0.42,-0.44 -4.31,-4.41 -7.53,-7.09 -0.42,-0.36 -0.95,-0.81 -1.5,-0.81 -0.27,0 -0.51,0.11 -0.7,0.31 -0.64,0.7 0.32,1.74 0.73,2.12 l 6.58,7.26 c -0.01,0.07 -0.09,0.22 -0.25,0.45 -0.24,0.32 -1.03,1.12 -3.42,1.42 -0.28,0.03 -0.58,0.05 -0.87,0.05 -2.46,0 -5.09,-1.19 -6.44,-1.91 0.62,-1.3 0.93,-2.73 0.93,-4.17 0,-5.42 -4.39,-9.82 -9.81,-9.82 -0.11,0 -0.24,0 -0.35,0.01 0.18,-2.47 -0.17,-7.15 -4.98,-9.22 -1.38,-0.6 -2.76,-0.9 -4.1,-0.9 -1.05,0 -2.06,0.18 -3.01,0.54 -0.99,-1.93 -2.65,-3.34 -4.81,-4.08 -1.19,-0.41 -2.38,-0.62 -3.52,-0.62 -2,0 -3.84,0.59 -5.49,1.76 -1.57,-1.96 -3.95,-3.12 -6.46,-3.12 -2.19,0 -4.3,0.88 -5.86,2.42 -2.05,-1.56 -10.17,-6.72 -31.92,-11.66 -1.05,-0.24 -3.47,-0.93 -4.95,-1.37 -0.25,1.18 -0.43,2.37 -0.56,3.57 0,0 4.01,0.96 4.8,1.14 22.21,4.93 29.55,10.07 30.8,11.03 -0.42,1.01 -0.64,2.1 -0.64,3.2 0,4.59 3.73,8.33 8.32,8.33 0.52,0 1.03,-0.04 1.53,-0.14 0.69,3.38 2.9,5.94 6.28,7.25 0.99,0.38 1.99,0.57 2.96,0.57 0.63,0 1.27,-0.08 1.9,-0.24 0.62,1.59 2.03,3.56 5.17,4.83 1.1,0.44 2.2,0.68 3.27,0.68 0.87,0 1.73,-0.15 2.54,-0.46 1.5,3.66 5.08,6.09 9.07,6.09 2.64,0 5.18,-1.07 7.03,-2.98 1.58,0.88 4.93,2.47 8.31,2.48 0.44,0 0.85,-0.03 1.26,-0.08 3.36,-0.42 4.92,-1.73 5.64,-2.76 0.13,-0.18 0.25,-0.37 0.35,-0.56 0.79,0.23 1.67,0.41 2.66,0.41 1.83,0 3.59,-0.62 5.37,-1.92 1.75,-1.26 2.99,-3.07 3.17,-4.61 0,-0.02 0.01,-0.04 0.01,-0.07 0.59,0.12 1.19,0.19 1.8,0.19 1.89,0 3.74,-0.59 5.52,-1.75 3.42,-2.24 4.02,-5.18 3.96,-7.09 0.6,0.13 1.21,0.19 1.82,0.19 1.77,0 3.51,-0.54 5.17,-1.59 2.12,-1.36 3.4,-3.43 3.59,-5.85 0.13,-1.64 -0.27,-3.3 -1.14,-4.72 5.73,-2.47 18.84,-7.25 34.27,-10.73 -0.09,-1.2 -0.27,-2.38 -0.48,-3.55 -18.67,4.16 -32.6,10.19 -36.09,11.75" />
	</g>
	<g
   id="g44"
   transform="translate(372.3848,355.1846)">
		
	</g>
	<g
   id="g48"
   transform="translate(491.0654,348.9932)">
		
	</g>
	<g
   id="g52"
   transform="translate(604.4424,344.4316)">
		
	</g>
	<g
   id="g56"
   transform="translate(636.0684,348.5366)">
		
	</g>
	<g
   id="g60"
   transform="translate(450.3125,316.3428)">
		
	</g>
	<g
   id="g68"
   transform="translate(467.5215,361.2886)">
		
	</g>
	<g
   id="g72"
   transform="translate(546.9404,364.02)">
		
	</g>
	<g
   id="g76"
   transform="translate(690.4863,342.9561)">
		
	</g>
	
	
	<g
   id="g84_1_"
   transform="translate(606.3789,289.2861)">
		
	</g>
	<g
   id="g64_1_"
   transform="translate(513.6289,262.0811)">
		
	</g>
	<g
   id="g80_1_"
   transform="translate(543.9404,276.9932)">
		
	</g>
	<g
   id="g84_2_"
   transform="translate(606.3789,289.2861)">
		
	</g>
</g>
</svg>
